<svg xmlns="http://www.w3.org/2000/svg" viewBox="0 0 100 100">
  <defs>
    <linearGradient id="grad" x1="0%" y1="0%" x2="100%" y2="100%">
      <stop offset="0%" style="stop-color:#4A90E2;stop-opacity:1" />
      <stop offset="100%" style="stop-color:#7B68EE;stop-opacity:1" />
    </linearGradient>
  </defs>
  
  <!-- Background Circle -->
  <circle cx="50" cy="50" r="48" fill="url(#grad)" />
  
  <!-- "R" Letter in Modern Style -->
  <path d="M 30 35 L 30 65 L 35 65 L 35 52 L 45 52 C 52 52 55 48 55 43 C 55 38 52 35 45 35 Z M 35 40 L 45 40 C 48 40 50 41 50 43 C 50 45 48 47 45 47 L 35 47 Z" fill="white"/>
  
  <!-- Architecture/Agent symbol - Abstract network nodes -->
  <circle cx="60" cy="42" r="3" fill="white" opacity="0.9"/>
  <circle cx="70" cy="45" r="2.5" fill="white" opacity="0.9"/>
  <circle cx="65" cy="53" r="2.5" fill="white" opacity="0.9"/>
  <line x1="60" y1="42" x2="70" y2="45" stroke="white" stroke-width="1.5" opacity="0.7"/>
  <line x1="60" y1="42" x2="65" y2="53" stroke="white" stroke-width="1.5" opacity="0.7"/>
  <line x1="70" y1="45" x2="65" y2="53" stroke="white" stroke-width="1.5" opacity="0.7"/>
</svg>
